<?xml version="1.0" encoding="UTF-8" standalone="no"?>
<!DOCTYPE svg PUBLIC "-//W3C//DTD SVG 1.1//EN"
 "http://www.w3.org/Graphics/SVG/1.1/DTD/svg11.dtd">
<!-- Generated by graphviz version 11.0.0 (20240428.1522)
 -->
<!-- Title: world Pages: 1 -->
<svg width="1048pt" height="776pt"
 viewBox="0.00 0.00 1047.62 775.89" xmlns="http://www.w3.org/2000/svg" xmlns:xlink="http://www.w3.org/1999/xlink">
<g id="graph0" class="graph" transform="scale(1 1) rotate(0) translate(36 739.89)">
<title>world</title>
<polygon fill="#2e3e56" stroke="none" points="-36,36 -36,-739.89 1011.62,-739.89 1011.62,36 -36,36"/>
<!-- S35 -->
<g id="node1" class="node">
<title>S35</title>
<g id="a_node1"><a xlink:title="Go S35">
<ellipse fill="#8eabd9" stroke="#8eabd9" stroke-width="3" cx="560.02" cy="-682.29" rx="21.6" ry="21.6"/>
</a>
</g>
</g>
<!-- 43 -->
<g id="node7" class="node">
<title>43</title>
<ellipse fill="#a5cf80" stroke="#a5cf80" stroke-width="3" cx="591.02" cy="-603.09" rx="21.6" ry="21.6"/>
</g>
<!-- S35&#45;&gt;43 -->
<g id="edge7" class="edge">
<title>S35&#45;&gt;43</title>
<path fill="none" stroke="#fcfcfc" stroke-width="2" d="M568.16,-661.01C571.17,-653.53 574.65,-644.86 577.97,-636.58"/>
<polygon fill="#fcfcfc" stroke="#fcfcfc" stroke-width="2" points="581.21,-637.9 581.69,-627.32 574.72,-635.29 581.21,-637.9"/>
</g>
<!-- 36 -->
<g id="node19" class="node">
<title>36</title>
<ellipse fill="#edad56" stroke="#edad56" stroke-width="3" cx="529.02" cy="-603.09" rx="21.6" ry="21.6"/>
</g>
<!-- S35&#45;&gt;36 -->
<g id="edge8" class="edge">
<title>S35&#45;&gt;36</title>
<path fill="none" stroke="#fcfcfc" stroke-width="2" d="M551.87,-661.01C548.87,-653.53 545.39,-644.86 542.06,-636.58"/>
<polygon fill="#fcfcfc" stroke="#fcfcfc" stroke-width="2" points="545.32,-635.29 538.34,-627.32 538.82,-637.9 545.32,-635.29"/>
</g>
<!-- 23 -->
<g id="node2" class="node">
<title>23</title>
<g id="a_node2"><a xlink:title="Go 23">
<polygon fill="#edad56" stroke="#edad56" stroke-width="3" points="607.62,-185.56 586.02,-198 564.42,-185.56 564.44,-165.44 607.6,-165.44 607.62,-185.56"/>
</a>
</g>
</g>
<!-- T1 -->
<g id="node3" class="node">
<title>T1</title>
<g id="a_node3"><a xlink:title="Go T1">
<polygon fill="#9362a8" stroke="#9362a8" stroke-width="3" points="413.62,-118.8 370.42,-118.8 370.42,-82.8 413.62,-82.8 413.62,-118.8"/>
</a>
</g>
</g>
<!-- 23&#45;&gt;T1 -->
<g id="edge70" class="edge">
<title>23&#45;&gt;T1</title>
<path fill="none" stroke="#fcfcfc" stroke-width="2" d="M563,-169.84C529.31,-156.43 466.3,-131.36 426.9,-115.68"/>
<polygon fill="#fcfcfc" stroke="#fcfcfc" stroke-width="2" points="428.4,-112.51 417.82,-112.07 425.81,-119.02 428.4,-112.51"/>
</g>
<!-- T24 -->
<g id="node25" class="node">
<title>T24</title>
<ellipse fill="#edad56" stroke="#edad56" stroke-width="3" cx="689.02" cy="-100.8" rx="21.6" ry="21.6"/>
</g>
<!-- 23&#45;&gt;T24 -->
<g id="edge69" class="edge">
<title>23&#45;&gt;T24</title>
<path fill="none" stroke="#fcfcfc" stroke-width="2" d="M605.88,-164.12C621.56,-152.36 643.64,-135.81 661.1,-122.72"/>
<polygon fill="#fcfcfc" stroke="#fcfcfc" stroke-width="2" points="662.96,-125.71 668.86,-116.91 658.76,-120.11 662.96,-125.71"/>
</g>
<!-- T99 -->
<g id="node4" class="node">
<title>T99</title>
<g id="a_node4"><a xlink:title="Go T1">
<polygon fill="#9362a8" stroke="#9362a8" stroke-width="3" points="642.62,-700.29 599.42,-700.29 599.42,-664.29 642.62,-664.29 642.62,-700.29"/>
</a>
</g>
</g>
<!-- P4 -->
<g id="node5" class="node">
<title>P4</title>
<g id="a_node5"><a xlink:title="Go P4">
<ellipse fill="#f2688d" stroke="#f2688d" stroke-width="3" cx="260.02" cy="-100.8" rx="21.6" ry="18"/>
</a>
</g>
</g>
<!-- T30 -->
<g id="node6" class="node">
<title>T30</title>
<g id="a_node6"><a xlink:title="Go T30">
<ellipse fill="#ea555b" stroke="#ea555b" stroke-width="3" cx="260.02" cy="-180" rx="21.6" ry="21.6"/>
</a>
</g>
</g>
<!-- T30&#45;&gt;P4 -->
<g id="edge1" class="edge">
<title>T30&#45;&gt;P4</title>
<path fill="none" stroke="#fcfcfc" stroke-width="2" d="M260.02,-157.08C260.02,-149.6 260.02,-141.08 260.02,-133.01"/>
<polygon fill="#fcfcfc" stroke="#fcfcfc" stroke-width="2" points="263.52,-133.14 260.02,-123.14 256.52,-133.14 263.52,-133.14"/>
</g>
<!-- 40 -->
<g id="node8" class="node">
<title>40</title>
<ellipse fill="#a5cf80" stroke="#a5cf80" stroke-width="3" cx="591.02" cy="-510.35" rx="35.15" ry="35.15"/>
<text text-anchor="middle" x="591.02" y="-504.17" font-family="Times,serif" font-size="14.00">Another</text>
</g>
<!-- 43&#45;&gt;40 -->
<g id="edge45" class="edge">
<title>43&#45;&gt;40</title>
<path fill="none" stroke="#fcfcfc" stroke-width="2" d="M591.02,-580.12C591.02,-573.89 591.02,-566.86 591.02,-559.72"/>
<polygon fill="#fcfcfc" stroke="#fcfcfc" stroke-width="2" points="594.52,-559.94 591.02,-549.94 587.52,-559.94 594.52,-559.94"/>
</g>
<!-- 38 -->
<g id="node42" class="node">
<title>38</title>
<ellipse fill="#edad56" stroke="#edad56" stroke-width="3" cx="666.02" cy="-510.35" rx="21.6" ry="21.6"/>
</g>
<!-- 43&#45;&gt;38 -->
<g id="edge44" class="edge">
<title>43&#45;&gt;38</title>
<path fill="none" stroke="#fcfcfc" stroke-width="2" d="M605.13,-585.02C616.02,-571.84 631.3,-553.35 643.83,-538.19"/>
<polygon fill="#fcfcfc" stroke="#fcfcfc" stroke-width="2" points="646.37,-540.61 650.05,-530.67 640.98,-536.15 646.37,-540.61"/>
</g>
<!-- 19 -->
<g id="node10" class="node">
<title>19</title>
<ellipse fill="#ab6d16" stroke="#ab6d16" stroke-width="3" cx="521.02" cy="-417.6" rx="21.6" ry="21.6"/>
</g>
<!-- 40&#45;&gt;19 -->
<g id="edge52" class="edge">
<title>40&#45;&gt;19</title>
<path fill="none" stroke="#fcfcfc" stroke-width="2" d="M569.25,-481.13C560.68,-470.01 550.86,-457.28 542.33,-446.22"/>
<polygon fill="#fcfcfc" stroke="#fcfcfc" stroke-width="2" points="545.35,-444.41 536.47,-438.63 539.81,-448.69 545.35,-444.41"/>
</g>
<!-- 28 -->
<g id="node9" class="node">
<title>28</title>
<ellipse fill="#ab6d16" stroke="#ab6d16" stroke-width="3" cx="249.02" cy="-338.4" rx="21.6" ry="21.6"/>
</g>
<!-- 29 -->
<g id="node38" class="node">
<title>29</title>
<ellipse fill="#edad56" stroke="#edad56" stroke-width="3" cx="218.02" cy="-259.2" rx="21.6" ry="21.6"/>
</g>
<!-- 28&#45;&gt;29 -->
<g id="edge62" class="edge">
<title>28&#45;&gt;29</title>
<path fill="none" stroke="#fcfcfc" stroke-width="2" d="M240.87,-317.12C237.87,-309.64 234.39,-300.97 231.06,-292.69"/>
<polygon fill="#fcfcfc" stroke="#fcfcfc" stroke-width="2" points="234.32,-291.4 227.34,-283.43 227.82,-294.01 234.32,-291.4"/>
</g>
<!-- 19&#45;&gt;28 -->
<g id="edge54" class="edge">
<title>19&#45;&gt;28</title>
<path fill="none" stroke="#fcfcfc" stroke-width="2" d="M503.36,-403.07C499.16,-400.38 494.58,-397.82 490.02,-396 404.12,-361.67 372.02,-391.44 285.02,-360 282.97,-359.26 280.9,-358.41 278.85,-357.48"/>
<polygon fill="#fcfcfc" stroke="#fcfcfc" stroke-width="2" points="280.66,-354.47 270.17,-352.98 277.44,-360.69 280.66,-354.47"/>
</g>
<!-- 21 -->
<g id="node44" class="node">
<title>21</title>
<ellipse fill="#edad56" stroke="#edad56" stroke-width="3" cx="586.02" cy="-338.4" rx="21.6" ry="21.6"/>
</g>
<!-- 19&#45;&gt;21 -->
<g id="edge55" class="edge">
<title>19&#45;&gt;21</title>
<path fill="none" stroke="#fcfcfc" stroke-width="2" d="M535.12,-399.85C543.41,-390 554.08,-377.33 563.51,-366.13"/>
<polygon fill="#fcfcfc" stroke="#fcfcfc" stroke-width="2" points="566,-368.6 569.77,-358.7 560.65,-364.1 566,-368.6"/>
</g>
<!-- 20 -->
<g id="node45" class="node">
<title>20</title>
<ellipse fill="#edad56" stroke="#edad56" stroke-width="3" cx="525.02" cy="-338.4" rx="21.6" ry="21.6"/>
</g>
<!-- 19&#45;&gt;20 -->
<g id="edge56" class="edge">
<title>19&#45;&gt;20</title>
<path fill="none" stroke="#fcfcfc" stroke-width="2" d="M522.15,-394.68C522.48,-388.33 522.85,-381.22 523.21,-374.28"/>
<polygon fill="#fcfcfc" stroke="#fcfcfc" stroke-width="2" points="526.7,-374.56 523.72,-364.39 519.71,-374.2 526.7,-374.56"/>
</g>
<!-- S8 -->
<g id="node11" class="node">
<title>S8</title>
<ellipse fill="#edad56" stroke="#edad56" stroke-width="3" cx="840.02" cy="-603.09" rx="21.6" ry="21.6"/>
</g>
<!-- 9 -->
<g id="node12" class="node">
<title>9</title>
<ellipse fill="#edad56" stroke="#edad56" stroke-width="3" cx="840.02" cy="-510.35" rx="21.6" ry="21.6"/>
</g>
<!-- S8&#45;&gt;9 -->
<g id="edge2" class="edge">
<title>S8&#45;&gt;9</title>
<path fill="none" stroke="#fcfcfc" stroke-width="2" d="M840.02,-580.12C840.02,-569.94 840.02,-557.6 840.02,-546.2"/>
<polygon fill="#fcfcfc" stroke="#fcfcfc" stroke-width="2" points="843.52,-546.45 840.02,-536.45 836.52,-546.45 843.52,-546.45"/>
</g>
<!-- 9&#45;&gt;T1 -->
<g id="edge12" class="edge">
<title>9&#45;&gt;T1</title>
<path fill="none" stroke="#fcfcfc" stroke-width="2" d="M840.61,-487.4C840.57,-464.09 838.6,-426.47 828.02,-396 787.04,-278.03 780.98,-229.07 678.02,-158.4 637.61,-130.66 494.67,-112.5 427.45,-105.3"/>
<polygon fill="#fcfcfc" stroke="#fcfcfc" stroke-width="2" points="428.01,-101.84 417.7,-104.28 427.29,-108.8 428.01,-101.84"/>
</g>
<!-- 42 -->
<g id="node23" class="node">
<title>42</title>
<ellipse fill="#edad56" stroke="#edad56" stroke-width="3" cx="736.02" cy="-417.6" rx="21.6" ry="21.6"/>
</g>
<!-- 9&#45;&gt;42 -->
<g id="edge11" class="edge">
<title>9&#45;&gt;42</title>
<path fill="none" stroke="#fcfcfc" stroke-width="2" d="M823.31,-494.77C806.86,-480.41 781.48,-458.27 762.33,-441.55"/>
<polygon fill="#fcfcfc" stroke="#fcfcfc" stroke-width="2" points="764.8,-439.07 754.97,-435.13 760.2,-444.35 764.8,-439.07"/>
</g>
<!-- S24 -->
<g id="node13" class="node">
<title>S24</title>
<ellipse fill="#edad56" stroke="#edad56" stroke-width="3" cx="906.02" cy="-603.09" rx="21.6" ry="21.6"/>
</g>
<!-- 25 -->
<g id="node14" class="node">
<title>25</title>
<ellipse fill="#edad56" stroke="#edad56" stroke-width="3" cx="904.02" cy="-510.35" rx="21.6" ry="21.6"/>
</g>
<!-- S24&#45;&gt;25 -->
<g id="edge3" class="edge">
<title>S24&#45;&gt;25</title>
<path fill="none" stroke="#fcfcfc" stroke-width="2" d="M905.53,-580.12C905.31,-569.94 905.04,-557.6 904.79,-546.2"/>
<polygon fill="#fcfcfc" stroke="#fcfcfc" stroke-width="2" points="908.29,-546.37 904.57,-536.45 901.29,-546.53 908.29,-546.37"/>
</g>
<!-- 27 -->
<g id="node15" class="node">
<title>27</title>
<ellipse fill="#edad56" stroke="#edad56" stroke-width="3" cx="954.02" cy="-180" rx="21.6" ry="21.6"/>
</g>
<!-- S24&#45;&gt;27 -->
<g id="edge4" class="edge">
<title>S24&#45;&gt;27</title>
<path fill="none" stroke="#fcfcfc" stroke-width="2" d="M917.56,-583.37C923.67,-572.65 930.76,-558.73 935.02,-545.49 952.47,-491.2 954.02,-475.62 954.02,-418.6 954.02,-418.6 954.02,-418.6 954.02,-337.4 954.02,-295.65 954.02,-247.64 954.02,-215.94"/>
<polygon fill="#fcfcfc" stroke="#fcfcfc" stroke-width="2" points="957.52,-216.04 954.02,-206.04 950.52,-216.04 957.52,-216.04"/>
</g>
<!-- 25&#45;&gt;T1 -->
<!-- weaklink -->
<g id="edge13" class="edge">
<title>25&#45;&gt;T1</title>
<path fill="none" stroke="#445773" stroke-width="2" d="M910.91,-488.46C929.37,-428.08 972.86,-251.69 885.02,-158.4 869.3,-141.71 538.77,-113.63 427.91,-104.65"/>
<polygon fill="#445773" stroke="#445773" stroke-width="2" points="428.2,-101.17 417.95,-103.85 427.63,-108.14 428.2,-101.17"/>
</g>
<!-- 26 -->
<g id="node24" class="node">
<title>26</title>
<ellipse fill="#edad56" stroke="#edad56" stroke-width="3" cx="797.02" cy="-417.6" rx="21.6" ry="21.6"/>
</g>
<!-- 25&#45;&gt;26 -->
<g id="edge14" class="edge">
<title>25&#45;&gt;26</title>
<path fill="none" stroke="#fcfcfc" stroke-width="2" d="M889.05,-492.87C883.56,-487.09 877.17,-480.68 871.02,-475.2 856.58,-462.34 839.49,-449.15 825.38,-438.74"/>
<polygon fill="#fcfcfc" stroke="#fcfcfc" stroke-width="2" points="827.85,-436.21 817.7,-433.16 823.73,-441.87 827.85,-436.21"/>
</g>
<!-- 27&#45;&gt;T24 -->
<g id="edge15" class="edge">
<title>27&#45;&gt;T24</title>
<path fill="none" stroke="#fcfcfc" stroke-width="2" d="M935.08,-166.86C929.72,-163.78 923.77,-160.7 918.02,-158.4 851.9,-131.91 769.92,-115.29 724.15,-107.36"/>
<polygon fill="#fcfcfc" stroke="#fcfcfc" stroke-width="2" points="724.87,-103.93 714.42,-105.72 723.7,-110.83 724.87,-103.93"/>
</g>
<!-- S1 -->
<g id="node16" class="node">
<title>S1</title>
<ellipse fill="#edad56" stroke="#edad56" stroke-width="3" cx="298.02" cy="-682.29" rx="21.6" ry="21.6"/>
</g>
<!-- 2 -->
<g id="node17" class="node">
<title>2</title>
<ellipse fill="#edad56" stroke="#edad56" stroke-width="3" cx="348.02" cy="-603.09" rx="21.6" ry="21.6"/>
</g>
<!-- S1&#45;&gt;2 -->
<g id="edge5" class="edge">
<title>S1&#45;&gt;2</title>
<path fill="none" stroke="#fcfcfc" stroke-width="2" d="M309.87,-662.99C315.62,-654.12 322.66,-643.24 329.13,-633.26"/>
<polygon fill="#fcfcfc" stroke="#fcfcfc" stroke-width="2" points="331.94,-635.36 334.44,-625.06 326.06,-631.55 331.94,-635.36"/>
</g>
<!-- 10 -->
<g id="node18" class="node">
<title>10</title>
<ellipse fill="#edad56" stroke="#edad56" stroke-width="3" cx="248.02" cy="-603.09" rx="21.6" ry="21.6"/>
</g>
<!-- S1&#45;&gt;10 -->
<g id="edge6" class="edge">
<title>S1&#45;&gt;10</title>
<path fill="none" stroke="#fcfcfc" stroke-width="2" d="M286.17,-662.99C280.42,-654.12 273.37,-643.24 266.91,-633.26"/>
<polygon fill="#fcfcfc" stroke="#fcfcfc" stroke-width="2" points="269.98,-631.55 261.6,-625.06 264.1,-635.36 269.98,-631.55"/>
</g>
<!-- 2&#45;&gt;T1 -->
<g id="edge16" class="edge">
<title>2&#45;&gt;T1</title>
<path fill="none" stroke="#fcfcfc" stroke-width="2" d="M326.36,-595.27C312.81,-591.1 294.96,-585.75 279.02,-581.49 211.95,-563.55 174.26,-596.36 127.02,-545.49 81.52,-496.49 97.98,-461.78 110.02,-396 131.28,-279.83 138.43,-234.17 229.02,-158.4 265.9,-127.55 320.6,-113.14 356.29,-106.68"/>
<polygon fill="#fcfcfc" stroke="#fcfcfc" stroke-width="2" points="356.68,-110.16 365.97,-105.07 355.53,-103.25 356.68,-110.16"/>
</g>
<!-- 3 -->
<g id="node26" class="node">
<title>3</title>
<ellipse fill="#edad56" stroke="#edad56" stroke-width="3" cx="478.02" cy="-510.35" rx="21.6" ry="21.6"/>
</g>
<!-- 2&#45;&gt;3 -->
<g id="edge17" class="edge">
<title>2&#45;&gt;3</title>
<path fill="none" stroke="#fcfcfc" stroke-width="2" d="M368.42,-593.05C389.56,-583.12 422.94,-565.87 448.02,-545.49 450.74,-543.28 453.42,-540.81 455.99,-538.23"/>
<polygon fill="#fcfcfc" stroke="#fcfcfc" stroke-width="2" points="458.47,-540.7 462.65,-530.97 453.31,-535.97 458.47,-540.7"/>
</g>
<!-- 16 -->
<g id="node27" class="node">
<title>16</title>
<ellipse fill="#edad56" stroke="#edad56" stroke-width="3" cx="459.02" cy="-417.6" rx="21.6" ry="21.6"/>
</g>
<!-- 2&#45;&gt;16 -->
<g id="edge18" class="edge">
<title>2&#45;&gt;16</title>
<path fill="none" stroke="#fcfcfc" stroke-width="2" d="M350.45,-580.14C354.29,-553.35 363.78,-507.63 386.02,-475.2 392.18,-466.22 412.35,-450.84 429.93,-438.37"/>
<polygon fill="#fcfcfc" stroke="#fcfcfc" stroke-width="2" points="431.71,-441.4 437.91,-432.81 427.71,-435.66 431.71,-441.4"/>
</g>
<!-- 17 -->
<g id="node28" class="node">
<title>17</title>
<ellipse fill="#edad56" stroke="#edad56" stroke-width="3" cx="417.02" cy="-510.35" rx="21.6" ry="21.6"/>
</g>
<!-- 2&#45;&gt;17 -->
<g id="edge19" class="edge">
<title>2&#45;&gt;17</title>
<path fill="none" stroke="#fcfcfc" stroke-width="2" d="M361.32,-584.59C371.15,-571.66 384.74,-553.8 396.03,-538.95"/>
<polygon fill="#fcfcfc" stroke="#fcfcfc" stroke-width="2" points="398.66,-541.28 401.92,-531.2 393.08,-537.04 398.66,-541.28"/>
</g>
<!-- 18 -->
<g id="node29" class="node">
<title>18</title>
<ellipse fill="#edad56" stroke="#edad56" stroke-width="3" cx="141.02" cy="-417.6" rx="21.6" ry="21.6"/>
</g>
<!-- 2&#45;&gt;18 -->
<g id="edge20" class="edge">
<title>2&#45;&gt;18</title>
<path fill="none" stroke="#fcfcfc" stroke-width="2" d="M326.3,-595.47C312.73,-591.37 294.88,-586.04 279.02,-581.49 220.98,-564.85 185.93,-592.48 148.02,-545.49 127.18,-519.67 128.41,-480.39 132.97,-452.38"/>
<polygon fill="#fcfcfc" stroke="#fcfcfc" stroke-width="2" points="136.4,-453.1 134.83,-442.62 129.52,-451.79 136.4,-453.1"/>
</g>
<!-- 10&#45;&gt;T1 -->
<g id="edge21" class="edge">
<title>10&#45;&gt;T1</title>
<path fill="none" stroke="#fcfcfc" stroke-width="2" d="M225,-602.36C183.17,-601.58 94.29,-593.91 43.02,-545.49 -0.28,-504.61 0.02,-478.15 0.02,-418.6 0.02,-418.6 0.02,-418.6 0.02,-258.2 0.02,-166.73 95.19,-192.63 180.02,-158.4 239.95,-134.22 313.54,-117.23 356.38,-108.52"/>
<polygon fill="#fcfcfc" stroke="#fcfcfc" stroke-width="2" points="357.05,-111.96 366.18,-106.58 355.69,-105.09 357.05,-111.96"/>
</g>
<!-- 11 -->
<g id="node30" class="node">
<title>11</title>
<ellipse fill="#edad56" stroke="#edad56" stroke-width="3" cx="396.02" cy="-417.6" rx="21.6" ry="21.6"/>
</g>
<!-- 10&#45;&gt;11 -->
<g id="edge22" class="edge">
<title>10&#45;&gt;11</title>
<path fill="none" stroke="#fcfcfc" stroke-width="2" d="M249.24,-580.24C251.86,-552.72 260.1,-505.38 286.02,-475.2 310.37,-446.85 329.1,-456.91 362.02,-439.2 363.42,-438.45 364.85,-437.66 366.28,-436.86"/>
<polygon fill="#fcfcfc" stroke="#fcfcfc" stroke-width="2" points="367.68,-440.09 374.54,-432.02 364.14,-434.05 367.68,-440.09"/>
</g>
<!-- 14 -->
<g id="node31" class="node">
<title>14</title>
<ellipse fill="#edad56" stroke="#edad56" stroke-width="3" cx="331.02" cy="-417.6" rx="21.6" ry="21.6"/>
</g>
<!-- 10&#45;&gt;14 -->
<g id="edge23" class="edge">
<title>10&#45;&gt;14</title>
<path fill="none" stroke="#fcfcfc" stroke-width="2" d="M243.5,-580.87C239.02,-554.42 235.13,-508.64 253.02,-475.2 263.02,-456.5 282.24,-442.44 299.1,-433.01"/>
<polygon fill="#fcfcfc" stroke="#fcfcfc" stroke-width="2" points="300.3,-436.34 307.56,-428.62 297.07,-430.12 300.3,-436.34"/>
</g>
<!-- 13 -->
<g id="node32" class="node">
<title>13</title>
<ellipse fill="#edad56" stroke="#edad56" stroke-width="3" cx="317.02" cy="-510.35" rx="21.6" ry="21.6"/>
</g>
<!-- 10&#45;&gt;13 -->
<g id="edge24" class="edge">
<title>10&#45;&gt;13</title>
<path fill="none" stroke="#fcfcfc" stroke-width="2" d="M261.32,-584.59C271.15,-571.66 284.74,-553.8 296.03,-538.95"/>
<polygon fill="#fcfcfc" stroke="#fcfcfc" stroke-width="2" points="298.66,-541.28 301.92,-531.2 293.08,-537.04 298.66,-541.28"/>
</g>
<!-- 12 -->
<g id="node33" class="node">
<title>12</title>
<ellipse fill="#edad56" stroke="#edad56" stroke-width="3" cx="50.02" cy="-338.4" rx="21.6" ry="21.6"/>
</g>
<!-- 10&#45;&gt;12 -->
<g id="edge25" class="edge">
<title>10&#45;&gt;12</title>
<path fill="none" stroke="#fcfcfc" stroke-width="2" d="M224.97,-601.77C187.55,-599.89 114.07,-590.32 77.02,-545.49 36.81,-496.84 38.94,-418.47 44.33,-373.69"/>
<polygon fill="#fcfcfc" stroke="#fcfcfc" stroke-width="2" points="47.77,-374.33 45.65,-363.95 40.84,-373.38 47.77,-374.33"/>
</g>
<!-- 36&#45;&gt;19 -->
<g id="edge46" class="edge">
<title>36&#45;&gt;19</title>
<path fill="none" stroke="#fcfcfc" stroke-width="2" d="M528.07,-580.32C526.7,-548.95 524.16,-490.72 522.53,-453.36"/>
<polygon fill="#fcfcfc" stroke="#fcfcfc" stroke-width="2" points="526.04,-453.49 522.11,-443.65 519.05,-453.79 526.04,-453.49"/>
</g>
<!-- S30 -->
<g id="node20" class="node">
<title>S30</title>
<ellipse fill="#edad56" stroke="#edad56" stroke-width="3" cx="179.02" cy="-510.35" rx="21.6" ry="21.6"/>
</g>
<!-- 31 -->
<g id="node21" class="node">
<title>31</title>
<ellipse fill="#edad56" stroke="#edad56" stroke-width="3" cx="387.02" cy="-338.4" rx="21.6" ry="21.6"/>
</g>
<!-- S30&#45;&gt;31 -->
<g id="edge9" class="edge">
<title>S30&#45;&gt;31</title>
<path fill="none" stroke="#fcfcfc" stroke-width="2" d="M194.27,-493.38C216.47,-470.53 259.47,-427.78 300.02,-396 317.99,-381.91 339.5,-367.9 356.63,-357.34"/>
<polygon fill="#fcfcfc" stroke="#fcfcfc" stroke-width="2" points="358.37,-360.38 365.1,-352.2 354.74,-354.39 358.37,-360.38"/>
</g>
<!-- 33 -->
<g id="node22" class="node">
<title>33</title>
<ellipse fill="#edad56" stroke="#edad56" stroke-width="3" cx="202.02" cy="-417.6" rx="21.6" ry="21.6"/>
</g>
<!-- S30&#45;&gt;33 -->
<g id="edge10" class="edge">
<title>S30&#45;&gt;33</title>
<path fill="none" stroke="#fcfcfc" stroke-width="2" d="M184.35,-488.3C187.06,-477.61 190.42,-464.36 193.48,-452.3"/>
<polygon fill="#fcfcfc" stroke="#fcfcfc" stroke-width="2" points="196.83,-453.33 195.89,-442.78 190.04,-451.61 196.83,-453.33"/>
</g>
<!-- 31&#45;&gt;T1 -->
<g id="edge26" class="edge">
<title>31&#45;&gt;T1</title>
<path fill="none" stroke="#fcfcfc" stroke-width="2" d="M387.48,-315.66C388.37,-273.77 390.32,-181.75 391.35,-133.2"/>
<polygon fill="#fcfcfc" stroke="#fcfcfc" stroke-width="2" points="394.85,-133.29 391.56,-123.22 387.85,-133.14 394.85,-133.29"/>
</g>
<!-- 32 -->
<g id="node34" class="node">
<title>32</title>
<ellipse fill="#edad56" stroke="#edad56" stroke-width="3" cx="437.02" cy="-259.2" rx="21.6" ry="21.6"/>
</g>
<!-- 31&#45;&gt;32 -->
<g id="edge27" class="edge">
<title>31&#45;&gt;32</title>
<path fill="none" stroke="#fcfcfc" stroke-width="2" d="M398.87,-319.1C404.62,-310.23 411.66,-299.35 418.13,-289.37"/>
<polygon fill="#fcfcfc" stroke="#fcfcfc" stroke-width="2" points="420.94,-291.47 423.44,-281.17 415.06,-287.66 420.94,-291.47"/>
</g>
<!-- 33&#45;&gt;T30 -->
<g id="edge28" class="edge">
<title>33&#45;&gt;T30</title>
<path fill="none" stroke="#fcfcfc" stroke-width="2" d="M223,-408.08C241.79,-399.18 268.16,-383.25 280.02,-360 303.91,-313.15 287.78,-250.61 273.9,-213.21"/>
<polygon fill="#fcfcfc" stroke="#fcfcfc" stroke-width="2" points="277.17,-211.95 270.26,-203.91 270.65,-214.5 277.17,-211.95"/>
</g>
<!-- 34 -->
<g id="node35" class="node">
<title>34</title>
<ellipse fill="#edad56" stroke="#edad56" stroke-width="3" cx="188.02" cy="-338.4" rx="21.6" ry="21.6"/>
</g>
<!-- 33&#45;&gt;34 -->
<g id="edge29" class="edge">
<title>33&#45;&gt;34</title>
<path fill="none" stroke="#fcfcfc" stroke-width="2" d="M198.12,-395.1C196.92,-388.46 195.56,-380.98 194.24,-373.7"/>
<polygon fill="#fcfcfc" stroke="#fcfcfc" stroke-width="2" points="197.71,-373.25 192.49,-364.04 190.83,-374.5 197.71,-373.25"/>
</g>
<!-- 4 -->
<g id="node36" class="node">
<title>4</title>
<ellipse fill="#edad56" stroke="#edad56" stroke-width="3" cx="647.02" cy="-338.4" rx="21.6" ry="21.6"/>
</g>
<!-- 42&#45;&gt;4 -->
<g id="edge30" class="edge">
<title>42&#45;&gt;4</title>
<path fill="none" stroke="#fcfcfc" stroke-width="2" d="M719.28,-402.08C706.35,-390.87 688.22,-375.14 673.35,-362.24"/>
<polygon fill="#fcfcfc" stroke="#fcfcfc" stroke-width="2" points="675.82,-359.75 665.97,-355.84 671.23,-365.04 675.82,-359.75"/>
</g>
<!-- 26&#45;&gt;4 -->
<g id="edge31" class="edge">
<title>26&#45;&gt;4</title>
<path fill="none" stroke="#fcfcfc" stroke-width="2" d="M779.02,-403.3C775.16,-400.71 771.03,-398.15 767.02,-396 729.03,-375.68 715.01,-380.32 677.02,-360 676.64,-359.8 676.27,-359.59 675.89,-359.39"/>
<polygon fill="#fcfcfc" stroke="#fcfcfc" stroke-width="2" points="677.95,-356.54 667.6,-354.29 674.28,-362.51 677.95,-356.54"/>
</g>
<!-- 3&#45;&gt;4 -->
<g id="edge32" class="edge">
<title>3&#45;&gt;4</title>
<path fill="none" stroke="#fcfcfc" stroke-width="2" d="M494.42,-494.26C509.57,-480.21 532.6,-458.58 552.02,-439.2 576.79,-414.48 604.27,-385.43 623.28,-365.06"/>
<polygon fill="#fcfcfc" stroke="#fcfcfc" stroke-width="2" points="625.82,-367.47 630.07,-357.76 620.69,-362.7 625.82,-367.47"/>
</g>
<!-- 15 -->
<g id="node37" class="node">
<title>15</title>
<ellipse fill="#edad56" stroke="#edad56" stroke-width="3" cx="498.02" cy="-259.2" rx="21.6" ry="21.6"/>
</g>
<!-- 16&#45;&gt;15 -->
<g id="edge33" class="edge">
<title>16&#45;&gt;15</title>
<path fill="none" stroke="#fcfcfc" stroke-width="2" d="M464.36,-395.18C470.88,-369.05 481.97,-324.56 489.63,-293.84"/>
<polygon fill="#fcfcfc" stroke="#fcfcfc" stroke-width="2" points="492.92,-295.1 491.95,-284.55 486.13,-293.4 492.92,-295.1"/>
</g>
<!-- 17&#45;&gt;19 -->
<g id="edge34" class="edge">
<title>17&#45;&gt;19</title>
<path fill="none" stroke="#fcfcfc" stroke-width="2" d="M431.04,-492.06C435.88,-486.47 441.48,-480.37 447.02,-475.2 461.15,-462 478.21,-448.79 492.4,-438.45"/>
<polygon fill="#fcfcfc" stroke="#fcfcfc" stroke-width="2" points="494.03,-441.59 500.12,-432.92 489.95,-435.9 494.03,-441.59"/>
</g>
<!-- 18&#45;&gt;29 -->
<g id="edge35" class="edge">
<title>18&#45;&gt;29</title>
<path fill="none" stroke="#fcfcfc" stroke-width="2" d="M140.51,-394.67C140.92,-373.54 143.95,-341.25 157.02,-316.8 164.66,-302.51 177.31,-289.88 189.12,-280.19"/>
<polygon fill="#fcfcfc" stroke="#fcfcfc" stroke-width="2" points="190.95,-283.2 196.73,-274.32 186.67,-277.66 190.95,-283.2"/>
</g>
<!-- 11&#45;&gt;4 -->
<g id="edge36" class="edge">
<title>11&#45;&gt;4</title>
<path fill="none" stroke="#fcfcfc" stroke-width="2" d="M413.98,-403.34C418.39,-400.57 423.23,-397.91 428.02,-396 507.43,-364.27 538.09,-392.9 617.02,-360 617.56,-359.78 618.1,-359.54 618.64,-359.29"/>
<polygon fill="#fcfcfc" stroke="#fcfcfc" stroke-width="2" points="620,-362.54 627,-354.59 616.56,-356.44 620,-362.54"/>
</g>
<!-- 14&#45;&gt;15 -->
<g id="edge37" class="edge">
<title>14&#45;&gt;15</title>
<path fill="none" stroke="#fcfcfc" stroke-width="2" d="M349.88,-404.78C373.67,-389.8 412.18,-365.29 418.02,-360 441.46,-338.77 463.57,-310.28 478.59,-289.17"/>
<polygon fill="#fcfcfc" stroke="#fcfcfc" stroke-width="2" points="481.38,-291.28 484.23,-281.08 475.64,-287.28 481.38,-291.28"/>
</g>
<!-- 13&#45;&gt;19 -->
<g id="edge42" class="edge">
<title>13&#45;&gt;19</title>
<path fill="none" stroke="#fcfcfc" stroke-width="2" d="M336.94,-498.65C350.55,-491.55 369.13,-482.27 386.02,-475.2 431.14,-456.32 446.19,-460.91 490.02,-439.2 490.71,-438.86 491.4,-438.51 492.09,-438.14"/>
<polygon fill="#fcfcfc" stroke="#fcfcfc" stroke-width="2" points="493.7,-441.25 500.52,-433.14 490.13,-435.23 493.7,-441.25"/>
</g>
<!-- 12&#45;&gt;29 -->
<g id="edge43" class="edge">
<title>12&#45;&gt;29</title>
<path fill="none" stroke="#fcfcfc" stroke-width="2" d="M70.28,-328.09C99.04,-314.87 151.98,-290.55 186.06,-274.89"/>
<polygon fill="#fcfcfc" stroke="#fcfcfc" stroke-width="2" points="187.31,-278.16 194.93,-270.81 184.38,-271.8 187.31,-278.16"/>
</g>
<!-- 32&#45;&gt;23 -->
<g id="edge47" class="edge">
<title>32&#45;&gt;23</title>
<path fill="none" stroke="#fcfcfc" stroke-width="2" d="M455.13,-245.09C458.98,-242.49 463.08,-239.87 467.02,-237.6 496.22,-220.77 531.22,-204.57 555.68,-193.84"/>
<polygon fill="#fcfcfc" stroke="#fcfcfc" stroke-width="2" points="556.85,-197.15 564.64,-189.96 554.07,-190.72 556.85,-197.15"/>
</g>
<!-- 34&#45;&gt;29 -->
<g id="edge48" class="edge">
<title>34&#45;&gt;29</title>
<path fill="none" stroke="#fcfcfc" stroke-width="2" d="M195.9,-317.12C198.81,-309.64 202.17,-300.97 205.39,-292.69"/>
<polygon fill="#fcfcfc" stroke="#fcfcfc" stroke-width="2" points="208.63,-294.03 208.99,-283.44 202.1,-291.49 208.63,-294.03"/>
</g>
<!-- 5 -->
<g id="node43" class="node">
<title>5</title>
<ellipse fill="#edad56" stroke="#edad56" stroke-width="3" cx="647.02" cy="-259.2" rx="21.6" ry="21.6"/>
</g>
<!-- 4&#45;&gt;5 -->
<g id="edge53" class="edge">
<title>4&#45;&gt;5</title>
<path fill="none" stroke="#fcfcfc" stroke-width="2" d="M647.02,-315.48C647.02,-309.13 647.02,-302.02 647.02,-295.08"/>
<polygon fill="#fcfcfc" stroke="#fcfcfc" stroke-width="2" points="650.52,-295.2 647.02,-285.2 643.52,-295.2 650.52,-295.2"/>
</g>
<!-- 15&#45;&gt;T1 -->
<g id="edge64" class="edge">
<title>15&#45;&gt;T1</title>
<path fill="none" stroke="#fcfcfc" stroke-width="2" d="M485.65,-239.95C467.38,-212.99 433.01,-162.28 411.38,-130.37"/>
<polygon fill="#fcfcfc" stroke="#fcfcfc" stroke-width="2" points="414.51,-128.75 406,-122.44 408.72,-132.68 414.51,-128.75"/>
</g>
<!-- 29&#45;&gt;T30 -->
<g id="edge67" class="edge">
<title>29&#45;&gt;T30</title>
<path fill="none" stroke="#fcfcfc" stroke-width="2" d="M228.62,-238.72C233.04,-230.58 238.3,-220.93 243.23,-211.87"/>
<polygon fill="#fcfcfc" stroke="#fcfcfc" stroke-width="2" points="246.27,-213.59 247.98,-203.13 240.12,-210.25 246.27,-213.59"/>
</g>
<!-- 37 -->
<g id="node39" class="node">
<title>37</title>
<ellipse fill="#edad56" stroke="#edad56" stroke-width="3" cx="697.02" cy="-603.09" rx="21.6" ry="21.6"/>
</g>
<!-- 37&#45;&gt;40 -->
<g id="edge38" class="edge">
<title>37&#45;&gt;40</title>
<path fill="none" stroke="#fcfcfc" stroke-width="2" d="M679.99,-587.51C665.96,-575.5 645.58,-558.05 627.86,-542.88"/>
<polygon fill="#fcfcfc" stroke="#fcfcfc" stroke-width="2" points="630.52,-540.55 620.65,-536.71 625.97,-545.87 630.52,-540.55"/>
</g>
<!-- 39 -->
<g id="node40" class="node">
<title>39</title>
<ellipse fill="#edad56" stroke="#edad56" stroke-width="3" cx="708.02" cy="-338.4" rx="21.6" ry="21.6"/>
</g>
<!-- 37&#45;&gt;39 -->
<g id="edge39" class="edge">
<title>37&#45;&gt;39</title>
<path fill="none" stroke="#fcfcfc" stroke-width="2" d="M716.16,-590.63C730.67,-580.73 749.53,-564.96 758.02,-545.49 770.51,-516.86 772.64,-502.81 758.02,-475.2 744.69,-450.04 718.35,-464.36 705.02,-439.2 694.35,-419.07 695.43,-393.3 699.01,-372.99"/>
<polygon fill="#fcfcfc" stroke="#fcfcfc" stroke-width="2" points="702.43,-373.71 701.07,-363.2 695.58,-372.27 702.43,-373.71"/>
</g>
<!-- 41 -->
<g id="node41" class="node">
<title>41</title>
<ellipse fill="#edad56" stroke="#edad56" stroke-width="3" cx="727.02" cy="-510.35" rx="21.6" ry="21.6"/>
</g>
<!-- 37&#45;&gt;41 -->
<g id="edge40" class="edge">
<title>37&#45;&gt;41</title>
<path fill="none" stroke="#fcfcfc" stroke-width="2" d="M703.83,-581.5C707.44,-570.55 711.98,-556.83 716.08,-544.44"/>
<polygon fill="#fcfcfc" stroke="#fcfcfc" stroke-width="2" points="719.37,-545.64 719.18,-535.04 712.72,-543.44 719.37,-545.64"/>
</g>
<!-- 37&#45;&gt;38 -->
<g id="edge41" class="edge">
<title>37&#45;&gt;38</title>
<path fill="none" stroke="#fcfcfc" stroke-width="2" d="M689.98,-581.5C686.25,-570.55 681.56,-556.83 677.32,-544.44"/>
<polygon fill="#fcfcfc" stroke="#fcfcfc" stroke-width="2" points="680.66,-543.37 674.11,-535.03 674.03,-545.63 680.66,-543.37"/>
</g>
<!-- 39&#45;&gt;15 -->
<g id="edge49" class="edge">
<title>39&#45;&gt;15</title>
<path fill="none" stroke="#fcfcfc" stroke-width="2" d="M690.17,-323.8C686.3,-321.23 682.13,-318.75 678.02,-316.8 626.56,-292.37 609.16,-298.49 555.02,-280.8 547.24,-278.26 538.92,-275.36 531.11,-272.55"/>
<polygon fill="#fcfcfc" stroke="#fcfcfc" stroke-width="2" points="532.46,-269.32 521.87,-269.18 530.06,-275.9 532.46,-269.32"/>
</g>
<!-- 41&#45;&gt;29 -->
<g id="edge50" class="edge">
<title>41&#45;&gt;29</title>
<path fill="none" stroke="#fcfcfc" stroke-width="2" d="M713.74,-491.9C708.87,-486.17 703.06,-480.03 697.02,-475.2 639.69,-429.32 621.23,-420.54 552.02,-396 468.54,-366.4 437.46,-394.81 356.02,-360 312.57,-341.43 269.6,-307.16 243.43,-284.03"/>
<polygon fill="#fcfcfc" stroke="#fcfcfc" stroke-width="2" points="245.96,-281.59 236.19,-277.49 241.27,-286.79 245.96,-281.59"/>
</g>
<!-- 38&#45;&gt;4 -->
<g id="edge51" class="edge">
<title>38&#45;&gt;4</title>
<path fill="none" stroke="#fcfcfc" stroke-width="2" d="M663.57,-487.48C660.35,-458.67 654.65,-407.69 650.86,-373.72"/>
<polygon fill="#fcfcfc" stroke="#fcfcfc" stroke-width="2" points="654.38,-373.74 649.79,-364.19 647.42,-374.52 654.38,-373.74"/>
</g>
<!-- 5&#45;&gt;23 -->
<g id="edge57" class="edge">
<title>5&#45;&gt;23</title>
<path fill="none" stroke="#fcfcfc" stroke-width="2" d="M633.48,-241.07C624.77,-230.05 613.36,-215.61 603.91,-203.64"/>
<polygon fill="#fcfcfc" stroke="#fcfcfc" stroke-width="2" points="606.74,-201.58 597.79,-195.9 601.25,-205.92 606.74,-201.58"/>
</g>
<!-- 6 -->
<g id="node46" class="node">
<title>6</title>
<ellipse fill="#edad56" stroke="#edad56" stroke-width="3" cx="854.02" cy="-180" rx="21.6" ry="21.6"/>
</g>
<!-- 5&#45;&gt;6 -->
<g id="edge58" class="edge">
<title>5&#45;&gt;6</title>
<path fill="none" stroke="#fcfcfc" stroke-width="2" d="M668.01,-250.37C704.04,-236.93 777.93,-209.38 820.95,-193.33"/>
<polygon fill="#fcfcfc" stroke="#fcfcfc" stroke-width="2" points="821.99,-196.68 830.14,-189.91 819.55,-190.12 821.99,-196.68"/>
</g>
<!-- T35 -->
<g id="node47" class="node">
<title>T35</title>
<ellipse fill="#edad56" stroke="#edad56" stroke-width="3" cx="647.02" cy="-180" rx="21.6" ry="21.6"/>
</g>
<!-- 5&#45;&gt;T35 -->
<g id="edge59" class="edge">
<title>5&#45;&gt;T35</title>
<path fill="none" stroke="#fcfcfc" stroke-width="2" d="M647.02,-236.28C647.02,-229.93 647.02,-222.82 647.02,-215.88"/>
<polygon fill="#fcfcfc" stroke="#fcfcfc" stroke-width="2" points="650.52,-216 647.02,-206 643.52,-216 650.52,-216"/>
</g>
<!-- 22 -->
<g id="node48" class="node">
<title>22</title>
<ellipse fill="#edad56" stroke="#edad56" stroke-width="3" cx="586.02" cy="-259.2" rx="21.6" ry="21.6"/>
</g>
<!-- 21&#45;&gt;22 -->
<g id="edge60" class="edge">
<title>21&#45;&gt;22</title>
<path fill="none" stroke="#fcfcfc" stroke-width="2" d="M586.02,-315.48C586.02,-309.13 586.02,-302.02 586.02,-295.08"/>
<polygon fill="#fcfcfc" stroke="#fcfcfc" stroke-width="2" points="589.52,-295.2 586.02,-285.2 582.52,-295.2 589.52,-295.2"/>
</g>
<!-- 20&#45;&gt;15 -->
<g id="edge61" class="edge">
<title>20&#45;&gt;15</title>
<path fill="none" stroke="#fcfcfc" stroke-width="2" d="M517.78,-316.71C515.24,-309.44 512.32,-301.09 509.51,-293.07"/>
<polygon fill="#fcfcfc" stroke="#fcfcfc" stroke-width="2" points="512.88,-292.09 506.27,-283.8 506.27,-294.4 512.88,-292.09"/>
</g>
<!-- 7 -->
<g id="node49" class="node">
<title>7</title>
<ellipse fill="#edad56" stroke="#edad56" stroke-width="3" cx="854.02" cy="-100.8" rx="21.6" ry="21.6"/>
</g>
<!-- 6&#45;&gt;7 -->
<g id="edge63" class="edge">
<title>6&#45;&gt;7</title>
<path fill="none" stroke="#fcfcfc" stroke-width="2" d="M854.02,-157.08C854.02,-150.73 854.02,-143.62 854.02,-136.68"/>
<polygon fill="#fcfcfc" stroke="#fcfcfc" stroke-width="2" points="857.52,-136.8 854.02,-126.8 850.52,-136.8 857.52,-136.8"/>
</g>
<!-- 22&#45;&gt;23 -->
<g id="edge66" class="edge">
<title>22&#45;&gt;23</title>
<path fill="none" stroke="#fcfcfc" stroke-width="2" d="M586.02,-236.28C586.02,-228.86 586.02,-220.41 586.02,-212.4"/>
<polygon fill="#fcfcfc" stroke="#fcfcfc" stroke-width="2" points="589.52,-212.6 586.02,-202.6 582.52,-212.6 589.52,-212.6"/>
</g>
<!-- 22&#45;&gt;T35 -->
<g id="edge65" class="edge">
<title>22&#45;&gt;T35</title>
<path fill="none" stroke="#fcfcfc" stroke-width="2" d="M599.56,-241.07C607.16,-231.44 616.84,-219.2 625.46,-208.28"/>
<polygon fill="#fcfcfc" stroke="#fcfcfc" stroke-width="2" points="627.98,-210.74 631.43,-200.73 622.48,-206.4 627.98,-210.74"/>
</g>
<!-- T8 -->
<g id="node50" class="node">
<title>T8</title>
<ellipse fill="#edad56" stroke="#edad56" stroke-width="3" cx="854.02" cy="-21.6" rx="21.6" ry="21.6"/>
</g>
<!-- 7&#45;&gt;T8 -->
<g id="edge68" class="edge">
<title>7&#45;&gt;T8</title>
<path fill="none" stroke="#fcfcfc" stroke-width="2" d="M854.02,-77.88C854.02,-71.53 854.02,-64.42 854.02,-57.48"/>
<polygon fill="#fcfcfc" stroke="#fcfcfc" stroke-width="2" points="857.52,-57.6 854.02,-47.6 850.52,-57.6 857.52,-57.6"/>
</g>
</g>
</svg>
